<?xml version="1.0" encoding="UTF-8"?>
<svg width="42px" height="49px" viewBox="0 0 42 49" version="1.1" xmlns="http://www.w3.org/2000/svg" xmlns:xlink="http://www.w3.org/1999/xlink">
    <!-- Generator: sketchtool 52.3 (67297) - http://www.bohemiancoding.com/sketch -->
    <title>936BB5D5-2C3B-4C13-8DFE-C33754DF711C</title>
    <desc>Created with sketchtool.</desc>
    <defs>
        <ellipse id="path-1" cx="9.5" cy="23.5" rx="9.5" ry="23.5"></ellipse>
        <ellipse id="path-3" cx="9.5" cy="23.5" rx="9.5" ry="23.5"></ellipse>
    </defs>
    <g id="Final" stroke="none" stroke-width="1" fill="none" fill-rule="evenodd">
        <g id="01_AR_Main-Copy" transform="translate(-699.000000, -818.000000)">
            <g id="Group-13" transform="translate(700.000000, 819.000000)">
                <g id="Group-12">
                    <g id="Group-9">
                        <mask id="mask-2" fill="white">
                            <use xlink:href="#path-1"></use>
                        </mask>
                        <use id="Mask" stroke="#020202" stroke-width="2" fill="#FFFFFF" xlink:href="#path-1"></use>
                    </g>
                    <path d="M11.0798452,24.9984353 C12.1474002,24.9565219 13,24.0778286 13,23 C13,21.9715828 12.2237807,21.1244613 11.2252498,21.0125434 C11.7724717,18.0930121 13.2558761,16 15,16 C17.209139,16 19,19.3578644 19,23.5 C19,27.6421356 17.209139,31 15,31 C13.0645389,31 11.4501389,28.4225753 11.0798452,24.9984353 Z" id="Combined-Shape" fill="#020202"></path>
                </g>
                <g id="Group-12-Copy" transform="translate(21.000000, 0.000000)">
                    <g id="Group-9">
                        <mask id="mask-4" fill="white">
                            <use xlink:href="#path-3"></use>
                        </mask>
                        <use id="Mask" stroke="#020202" stroke-width="2" fill="#FFFFFF" xlink:href="#path-3"></use>
                    </g>
                    <path d="M11.0798452,24.9984353 C12.1474002,24.9565219 13,24.0778286 13,23 C13,21.9715828 12.2237807,21.1244613 11.2252498,21.0125434 C11.7724717,18.0930121 13.2558761,16 15,16 C17.209139,16 19,19.3578644 19,23.5 C19,27.6421356 17.209139,31 15,31 C13.0645389,31 11.4501389,28.4225753 11.0798452,24.9984353 Z" id="Combined-Shape" fill="#020202"></path>
                </g>
            </g>
        </g>
    </g>
</svg>