<?xml version="1.0" encoding="UTF-8"?>
<svg width="20px" height="20px" viewBox="0 0 20 20" version="1.1" xmlns="http://www.w3.org/2000/svg" xmlns:xlink="http://www.w3.org/1999/xlink">
    <!-- Generator: sketchtool 52.3 (67297) - http://www.bohemiancoding.com/sketch -->
    <title>A2C47A90-9B77-4898-A910-F09CA5200DAC</title>
    <desc>Created with sketchtool.</desc>
    <g id="Final" stroke="none" stroke-width="1" fill="none" fill-rule="evenodd">
        <g id="01_AR_Main-Copy" transform="translate(-1316.000000, -26.000000)" fill="#043470">
            <g id="Group-10" transform="translate(1239.000000, 26.000000)">
                <path d="M90.1391542,19.9406003 L90.1391542,13.35 L92.5983239,13.35 L93,9.95 L90.1391542,9.95 L90.1391542,8.2942 C90.1391542,7.4187 90.1628338,6.55 91.4581953,6.55 L92.7702202,6.55 L92.7702202,4.119 C92.7702202,4.08245 91.6432469,4 90.5031183,4 C88.1220035,4 86.6310661,5.40845 86.6310661,7.995 L86.6310661,9.95 L84,9.95 L84,13.35 L86.6310661,13.35 L86.6310661,19.9864273 C85.5042145,19.9643662 84.2550944,19.9168092 82.8696517,19.8541104 C81.809936,19.8054742 81.0875382,19.6387217 80.4546939,19.3925633 C79.0984567,18.8674916 78.0675971,17.8342218 77.5442069,16.4902762 C76.7680771,14.4981797 77.0357424,6.902009 77.0815141,5.89653128 C77.155147,4.28558328 77.5481871,2.86917983 78.6914861,1.72871202 C79.8308049,0.594199654 81.2417691,0.19617738 82.8696517,0.122726886 C92.5862004,-0.3249241 94.0270158,0.50685312 95.2519079,1.72871202 C96.7962072,3.2711724 97.2668603,5.19676644 96.8618798,14.080306 C96.815113,15.1373975 96.6459565,15.858999 96.400182,16.4902762 C95.4877691,18.8264678 93.7510841,19.718479 90.1391542,19.9406003 Z" id="Combined-Shape"></path>
            </g>
        </g>
    </g>
</svg>