<?xml version="1.0" encoding="UTF-8"?>
<svg width="133px" height="51px" viewBox="0 0 133 51" version="1.1" xmlns="http://www.w3.org/2000/svg" xmlns:xlink="http://www.w3.org/1999/xlink">
    <!-- Generator: sketchtool 52.3 (67297) - http://www.bohemiancoding.com/sketch -->
    <title>557B627D-1794-4ACC-B130-860E648FE180</title>
    <desc>Created with sketchtool.</desc>
    <g id="Symbols" stroke="none" stroke-width="1" fill="none" fill-rule="evenodd">
        <g id="Footer" transform="translate(-101.000000, -75.000000)" fill="#043470">
            <g id="Group" transform="translate(101.000000, 75.000000)">
                <path d="M18.2550957,23.5832127 L11.7557134,23.5832127 L11.6491662,20.6309696 L7.42279185,20.6309696 L6.53489809,23.5832127 L0,23.5832127 L8.52378011,0.416787265 L16.230698,0.416787265 L18.2550957,23.5832127 Z M11.4715874,12.9898698 L11.4715874,9.96816208 C11.4715874,8.64833575 11.5426189,7.29377713 11.5781347,5.9739508 C11.2940086,7.05065123 11.0809141,8.16208394 10.7612724,9.23878437 C10.1219889,11.3921852 9.55373687,13.5455861 8.87893762,15.698987 L11.5426189,15.698987 C11.5071032,14.7959479 11.4715874,13.8929088 11.4715874,12.9898698 Z M22.9786905,0.416787265 L29.4070414,0.416787265 C34.0596047,0.416787265 37.575664,1.97973951 37.575664,7.05065123 C37.575664,10.211288 36.2260655,12.7120116 33.1717109,13.9623734 L36.6522545,23.5832127 L29.8332304,23.5832127 C29.2649784,21.2561505 28.6256949,18.9638205 28.0929586,16.6367583 C27.8798641,15.7337192 27.7022854,14.8654124 27.4891909,13.9623734 C27.2050649,17.1924747 26.7788758,20.3878437 26.3526868,23.5832127 L20.066399,23.5832127 L22.9786905,0.416787265 Z M27.9153799,11.1490593 L28.3415689,11.1490593 C30.0818406,11.1490593 31.2893762,9.447178 31.2893762,7.84949349 C31.2893762,6.11287988 30.2239036,5.62662808 28.6256949,5.62662808 L27.9153799,11.1490593 Z M57.4644842,8.92619392 C57.4644842,11.1490593 57.1803582,13.406657 56.5410747,15.5600579 C55.226992,19.8321274 52.1016059,24 47.0938851,24 C44.7143298,24 42.4413218,22.8191027 41.0917233,20.9088278 C39.7776405,19.0332851 39.422483,16.6714906 39.422483,14.4486252 C39.422483,12.260492 39.7421248,10.0376266 40.4524398,7.9536903 C41.9085855,3.82054993 45.2115503,0 50.0416924,0 C55.1914762,0 57.4644842,4.44573082 57.4644842,8.92619392 Z M50.9295862,9.41244573 C50.9295862,8.30101302 50.8940704,5.83502171 49.2603459,5.83502171 C47.3780111,5.83502171 46.4190859,9.829233 46.2059914,11.2532562 C46.0284126,12.260492 45.9573811,13.3024602 45.9573811,14.3444284 C45.9573811,15.4905933 45.9928968,18.130246 47.6621371,18.130246 C49.6155034,18.130246 50.5033972,13.9971056 50.7164917,12.5383502 C50.8585547,11.4963821 50.9295862,10.4544139 50.9295862,9.41244573 Z M77.2467573,0.416787265 L75.1868437,16.8104197 C74.9027177,19.1722142 74.1213712,20.7004342 72.1680049,22.1939219 C70.5342804,23.4442836 68.7584929,24 66.6630636,24 C62.5077208,24 59.3823348,21.9160637 59.3823348,17.6092619 C59.3823348,17.0535456 59.4178505,16.4978292 59.488882,15.9421129 L61.4422483,0.416787265 L67.7285361,0.416787265 L65.8462014,15.3863965 C65.8106856,15.7684515 65.7751699,16.1505065 65.7751699,16.5325615 C65.7751699,17.4356006 66.1303274,18.130246 67.1602841,18.130246 C68.7229771,18.130246 68.9360716,16.5672938 69.0781347,15.3863965 L70.9604694,0.416787265 L77.2467573,0.416787265 Z M96.922483,0.416787265 L94.0101915,23.5832127 L88.0080296,23.5832127 L85.9126004,15.0738061 C85.5219271,13.4761216 85.1667696,11.878437 84.9181594,10.2460203 C84.8471279,11.4616498 84.7760964,12.7120116 84.7050649,13.9276411 C84.4919704,17.1577424 83.9947498,20.3531114 83.6040766,23.5832127 L77.6019148,23.5832127 L80.5142063,0.416787265 L86.5163681,0.416787265 L88.6473132,8.54413893 C89.1445337,10.4544139 89.4641754,12.4341534 89.8903644,14.3791606 C89.8903644,11.4616498 89.8548487,8.54413893 90.2455219,5.62662808 L90.9203212,0.416787265 L96.922483,0.416787265 Z M100.189932,0.416787265 L105.623842,0.416787265 C111.626004,0.416787265 115,3.95947902 115,9.75976845 C115,12.9204052 114.147622,16.4978292 112.336319,19.1374819 C110.063311,22.4370478 107.186535,23.5832127 103.173255,23.5832127 L97.2776405,23.5832127 L100.189932,0.416787265 Z M105.765905,6.2170767 L104.274243,17.9913169 C107.683755,17.8176556 108.500618,13.1287988 108.500618,10.5238784 C108.500618,8.71780029 108.14546,6.2170767 105.765905,6.2170767 Z" id="AROUND"></path>
                <path d="M36.2550957,50.5832127 L29.7557134,50.5832127 L29.6491662,47.6309696 L25.4227918,47.6309696 L24.5348981,50.5832127 L18,50.5832127 L26.5237801,27.4167873 L34.230698,27.4167873 L36.2550957,50.5832127 Z M29.4715874,39.9898698 L29.4715874,36.9681621 C29.4715874,35.6483357 29.5426189,34.2937771 29.5781347,32.9739508 C29.2940086,34.0506512 29.0809141,35.1620839 28.7612724,36.2387844 C28.1219889,38.3921852 27.5537369,40.5455861 26.8789376,42.698987 L29.5426189,42.698987 C29.5071032,41.7959479 29.4715874,40.8929088 29.4715874,39.9898698 Z M40.9786905,27.4167873 L47.4070414,27.4167873 C52.0596047,27.4167873 55.575664,28.9797395 55.575664,34.0506512 C55.575664,37.211288 54.2260655,39.7120116 51.1717109,40.9623734 L54.6522545,50.5832127 L47.8332304,50.5832127 C47.2649784,48.2561505 46.6256949,45.9638205 46.0929586,43.6367583 C45.8798641,42.7337192 45.7022854,41.8654124 45.4891909,40.9623734 C45.2050649,44.1924747 44.7788758,47.3878437 44.3526868,50.5832127 L38.066399,50.5832127 L40.9786905,27.4167873 Z M45.9153799,38.1490593 L46.3415689,38.1490593 C48.0818406,38.1490593 49.2893762,36.447178 49.2893762,34.8494935 C49.2893762,33.1128799 48.2239036,32.6266281 46.6256949,32.6266281 L45.9153799,38.1490593 Z M75.4644842,35.9261939 C75.4644842,38.1490593 75.1803582,40.406657 74.5410747,42.5600579 C73.226992,46.8321274 70.1016059,51 65.0938851,51 C62.7143298,51 60.4413218,49.8191027 59.0917233,47.9088278 C57.7776405,46.0332851 57.422483,43.6714906 57.422483,41.4486252 C57.422483,39.260492 57.7421248,37.0376266 58.4524398,34.9536903 C59.9085855,30.8205499 63.2115503,27 68.0416924,27 C73.1914762,27 75.4644842,31.4457308 75.4644842,35.9261939 Z M68.9295862,36.4124457 C68.9295862,35.301013 68.8940704,32.8350217 67.2603459,32.8350217 C65.3780111,32.8350217 64.4190859,36.829233 64.2059914,38.2532562 C64.0284126,39.260492 63.9573811,40.3024602 63.9573811,41.3444284 C63.9573811,42.4905933 63.9928968,45.130246 65.6621371,45.130246 C67.6155034,45.130246 68.5033972,40.9971056 68.7164917,39.5383502 C68.8585547,38.4963821 68.9295862,37.4544139 68.9295862,36.4124457 Z M95.2467573,27.4167873 L93.1868437,43.8104197 C92.9027177,46.1722142 92.1213712,47.7004342 90.1680049,49.1939219 C88.5342804,50.4442836 86.7584929,51 84.6630636,51 C80.5077208,51 77.3823348,48.9160637 77.3823348,44.6092619 C77.3823348,44.0535456 77.4178505,43.4978292 77.488882,42.9421129 L79.4422483,27.4167873 L85.7285361,27.4167873 L83.8462014,42.3863965 C83.8106856,42.7684515 83.7751699,43.1505065 83.7751699,43.5325615 C83.7751699,44.4356006 84.1303274,45.130246 85.1602841,45.130246 C86.7229771,45.130246 86.9360716,43.5672938 87.0781347,42.3863965 L88.9604694,27.4167873 L95.2467573,27.4167873 Z M114.922483,27.4167873 L112.010191,50.5832127 L106.00803,50.5832127 L103.9126,42.0738061 C103.521927,40.4761216 103.16677,38.878437 102.918159,37.2460203 C102.847128,38.4616498 102.776096,39.7120116 102.705065,40.9276411 C102.49197,44.1577424 101.99475,47.3531114 101.604077,50.5832127 L95.6019148,50.5832127 L98.5142063,27.4167873 L104.516368,27.4167873 L106.647313,35.5441389 C107.144534,37.4544139 107.464175,39.4341534 107.890364,41.3791606 C107.890364,38.4616498 107.854849,35.5441389 108.245522,32.6266281 L108.920321,27.4167873 L114.922483,27.4167873 Z M118.189932,27.4167873 L123.623842,27.4167873 C129.626004,27.4167873 133,30.959479 133,36.7597685 C133,39.9204052 132.147622,43.4978292 130.336319,46.1374819 C128.063311,49.4370478 125.186535,50.5832127 121.173255,50.5832127 L115.277641,50.5832127 L118.189932,27.4167873 Z M123.765905,33.2170767 L122.274243,44.9913169 C125.683755,44.8176556 126.500618,40.1287988 126.500618,37.5238784 C126.500618,35.7178003 126.14546,33.2170767 123.765905,33.2170767 Z" id="AROUND-Copy-2" transform="translate(75.500000, 39.000000) rotate(-180.000000) translate(-75.500000, -39.000000) "></path>
            </g>
        </g>
    </g>
</svg>