<?xml version="1.0" encoding="UTF-8"?>
<svg width="16px" height="22px" viewBox="0 0 16 22" version="1.1" xmlns="http://www.w3.org/2000/svg" xmlns:xlink="http://www.w3.org/1999/xlink">
    <!-- Generator: sketchtool 52.3 (67297) - http://www.bohemiancoding.com/sketch -->
    <title>96426CAF-134B-4124-8BC0-06A4089B0EAC</title>
    <desc>Created with sketchtool.</desc>
    <g id="Final" stroke="none" stroke-width="1" fill="none" fill-rule="evenodd">
        <g id="01_AR_Main-Copy" transform="translate(-102.000000, -25.000000)" fill="#043470" fill-rule="nonzero">
            <path d="M117.93201,34.4074135 C117.837757,34.1835019 117.560934,33.807301 116.769639,33.807301 L111.612327,33.807301 C111.57814,33.807301 111.561521,33.8004565 111.558197,33.8016787 C111.557248,33.7953231 111.555823,33.7765009 111.566032,33.7430119 L113.665708,26.8034615 C113.843767,26.2167934 114.019452,25.4013248 113.500231,25.0903907 C112.980773,24.7779899 112.379407,25.3402135 111.972245,25.7895035 L102.434673,36.3096849 C101.895272,36.905153 101.973144,37.3695986 102.067634,37.5935102 C102.162124,37.8174219 102.43871,38.1936228 103.229768,38.1936228 L108.387791,38.1936228 C108.421979,38.1936228 108.435511,38.1985117 108.441921,38.1994895 C108.442871,38.2058451 108.444295,38.2246674 108.434087,38.2579119 L106.334173,45.1969734 C106.156351,45.7836415 105.980666,46.5991101 106.49965,46.9100442 C106.604111,46.973111 106.712134,47 106.820869,47 C107.253197,47 107.702619,46.5697767 108.027874,46.210687 L117.565445,35.6914834 C118.104846,35.0962597 118.026975,34.6315696 117.93201,34.4074135 Z" id="Shape-Copy-3" transform="translate(110.000000, 36.000000) scale(-1, -1) translate(-110.000000, -36.000000) "></path>
        </g>
    </g>
</svg>