<?xml version="1.0" encoding="UTF-8"?>
<svg width="6px" height="8px" viewBox="0 0 6 8" version="1.1" xmlns="http://www.w3.org/2000/svg" xmlns:xlink="http://www.w3.org/1999/xlink">
    <!-- Generator: sketchtool 52.3 (67297) - http://www.bohemiancoding.com/sketch -->
    <title>248DAD4D-8B71-4F3C-A747-BC0CFF05A2F5</title>
    <desc>Created with sketchtool.</desc>
    <g id="Final" stroke="none" stroke-width="1" fill="none" fill-rule="evenodd">
        <g id="01_AR_Main-Copy" transform="translate(-650.000000, -34.000000)" fill="#9DACBF" fill-rule="nonzero">
            <path d="M655.974504,37.4208777 C655.939159,37.3394552 655.83535,37.2026549 655.538614,37.2026549 L653.604623,37.2026549 C653.591803,37.2026549 653.58557,37.200166 653.584324,37.2006104 C653.583968,37.1982993 653.583434,37.1914549 653.587262,37.1792771 L654.37464,34.6558042 C654.441413,34.4424703 654.507295,34.1459363 654.312587,34.0328693 C654.11779,33.9192691 653.892278,34.123714 653.739592,34.2870922 L650.163003,38.1126127 C649.960727,38.3291465 649.989929,38.4980358 650.025363,38.5794583 C650.060796,38.6608807 650.164516,38.797681 650.461163,38.797681 L652.395422,38.797681 C652.408242,38.797681 652.413317,38.7994588 652.41572,38.7998144 C652.416077,38.8021255 652.416611,38.8089699 652.412782,38.8210589 L651.625315,41.3443539 C651.558632,41.5576878 651.49275,41.8542219 651.687369,41.9672888 C651.726542,41.9902222 651.76705,42 651.807826,42 C651.969949,42 652.138482,41.8435552 652.260453,41.7129771 L655.837042,37.8878121 C656.039317,37.6713672 656.010116,37.502389 655.974504,37.4208777 Z" id="Shape"></path>
        </g>
    </g>
</svg>