<?xml version="1.0" encoding="UTF-8"?>
<svg width="20px" height="20px" viewBox="0 0 20 20" version="1.1" xmlns="http://www.w3.org/2000/svg" xmlns:xlink="http://www.w3.org/1999/xlink">
    <!-- Generator: sketchtool 52.3 (67297) - http://www.bohemiancoding.com/sketch -->
    <title>C42D8975-25C0-4497-A4EE-F4387AA3E78B</title>
    <desc>Created with sketchtool.</desc>
    <g id="Final" stroke="none" stroke-width="1" fill="none" fill-rule="evenodd">
        <g id="01_AR_Main-Copy" transform="translate(-1281.000000, -26.000000)" fill="#043470">
            <g id="Group-10" transform="translate(1239.000000, 26.000000)">
                <path d="M47.8696517,0.122726886 C46.2417691,0.19617738 44.8308049,0.594199654 43.6914861,1.72871202 C42.5481871,2.86917983 42.155147,4.28558328 42.0815141,5.89653128 C42.0357424,6.902009 41.7680771,14.4981797 42.5442069,16.4902762 C43.0675971,17.8342218 44.0984567,18.8674916 45.4546939,19.3925633 C46.0875382,19.6387217 46.809936,19.8054742 47.8696517,19.8541104 C56.7304675,20.2551103 60.0150888,20.036744 61.400182,16.4902762 C61.6459565,15.858999 61.815113,15.1373975 61.8618798,14.080306 C62.2668603,5.19676644 61.7962072,3.2711724 60.2519079,1.72871202 C59.0270158,0.50685312 57.5862004,-0.3249241 47.8696517,0.122726886 M47.9512449,18.0674767 C46.9810826,18.0238034 46.4547073,17.8620138 46.1034588,17.7260312 C45.2198648,17.3826005 44.5561743,16.721546 44.2148762,15.8431178 C43.6238235,14.3294421 43.819846,7.14022682 43.872583,5.9769298 C43.924325,4.83745456 44.1551739,3.79624418 44.9591648,2.99225904 C45.9542031,1.99968479 47.2397925,1.51332341 55.9931441,1.90836796 C57.135448,1.95998182 58.1792432,2.19025904 58.9852242,2.99225904 C59.9802624,3.98483328 60.4738014,5.28014268 60.0718059,13.9999074 C60.0280243,14.9676673 59.865833,15.4927391 59.7295128,15.8431178 C58.8290031,18.1508529 56.7573335,18.4714544 47.9512449,18.0674767 M56.0896628,4.689561 C56.0896628,5.34664515 56.6239984,5.8806501 57.2837087,5.8806501 C57.9434191,5.8806501 58.4787497,5.34664515 58.4787497,4.689561 C58.4787497,4.03247685 57.9434191,3.4984719 57.2837087,3.4984719 C56.6239984,3.4984719 56.0896628,4.03247685 56.0896628,4.689561 M46.862673,9.98792233 C46.862673,12.8028629 49.150266,15.0847911 51.9721945,15.0847911 C54.794123,15.0847911 57.081716,12.8028629 57.081716,9.98792233 C57.081716,7.17298177 54.794123,4.89204615 51.9721945,4.89204615 C49.150266,4.89204615 46.862673,7.17298177 46.862673,9.98792233 M48.6557319,9.98792233 C48.6557319,8.16158572 50.140329,6.67967237 51.9721945,6.67967237 C53.8040599,6.67967237 55.288657,8.16158572 55.288657,9.98792233 C55.288657,11.8152515 53.8040599,13.2971649 51.9721945,13.2971649 C50.140329,13.2971649 48.6557319,11.8152515 48.6557319,9.98792233" id="instagram-[#167]"></path>
            </g>
        </g>
    </g>
</svg>