<?xml version="1.0" encoding="UTF-8"?>
<svg width="27px" height="20px" viewBox="0 0 27 20" version="1.1" xmlns="http://www.w3.org/2000/svg" xmlns:xlink="http://www.w3.org/1999/xlink">
    <!-- Generator: sketchtool 52.3 (67297) - http://www.bohemiancoding.com/sketch -->
    <title>C73900D2-B2EB-44C8-8E61-26FD7DD26323</title>
    <desc>Created with sketchtool.</desc>
    <g id="Final" stroke="none" stroke-width="1" fill="none" fill-rule="evenodd">
        <g id="01_AR_Main-Copy" transform="translate(-1239.000000, -26.000000)" fill="#043470">
            <g id="Group-10" transform="translate(1239.000000, 26.000000)">
                <path d="M10.8,14.4444444 L10.8,5.55555556 C13.2084743,7.04045969 15.0738376,8.47481389 17.28,10.0213258 C15.4603977,11.3435223 13.2084743,12.8268468 10.8,14.4444444 M25.7728476,1.6898386 C25.3089125,1.04303777 24.5182058,0.54012875 23.6763989,0.373442192 C21.2020785,-0.12376814 5.76581547,-0.125192811 3.29283979,0.373442192 C2.61778064,0.507361307 2.01668215,0.830761723 1.50030223,1.33367074 C-0.675486041,3.4706779 0.00629681205,14.9307349 0.53074516,16.7870818 C0.751282414,17.5905965 1.03636716,18.1704378 1.39541257,18.5508251 C1.8580029,19.0537341 2.49137514,19.3999292 3.21887913,19.5552184 C5.25615925,20.0011406 15.7518499,20.2504581 23.6333673,19.622178 C24.3595265,19.4882589 25.0023119,19.1306663 25.5092787,18.6063872 C27.5210087,16.4779281 27.3838453,4.37391959 25.7728476,1.6898386" id="youtube-[#168]"></path>
            </g>
        </g>
    </g>
</svg>